<svg width="1083" height="840" viewBox="0 0 1083 840" fill="none" xmlns="http://www.w3.org/2000/svg">
<g opacity="0.4">
<g filter="url(#filter0_f_102_270)">
<circle cx="692.344" cy="294.336" r="256.336" fill="url(#paint0_linear_102_270)"/>
</g>
<g filter="url(#filter1_f_102_270)">
<path d="M277.684 343.909C287.036 282.792 228.067 250.068 241.635 189.747C265.442 83.8978 431.711 304.791 409.637 411.015C400.386 455.528 386.287 482.829 351.142 511.673C287.357 564.025 177.231 585.229 139.836 511.673C101.408 436.086 264.857 427.727 277.684 343.909Z" fill="#4ACFFF"/>
</g>
<g filter="url(#filter2_f_102_270)">
<circle cx="554.507" cy="473.965" r="231.566" fill="#FF3333"/>
</g>
</g>
<g clip-path="url(#clip0_102_270)">
<rect x="307.087" y="212.242" width="532.067" height="343.269" rx="40" fill="#0D0C0B" fill-opacity="0.1"/>
<g filter="url(#filter3_d_102_270)">
<path d="M461.896 384.166C461.896 380.616 462.518 377.285 463.763 374.174C465.044 371.027 466.801 368.3 469.033 365.994C471.266 363.652 473.902 361.804 476.94 360.449C479.978 359.095 483.272 358.418 486.822 358.418C490.373 358.418 493.648 359.095 496.65 360.449C499.688 361.767 502.305 363.597 504.501 365.939C506.734 368.245 508.473 370.972 509.717 374.119C510.962 377.23 511.583 380.561 511.583 384.111V407.773C511.583 408.835 511.236 409.713 510.54 410.408C509.882 411.067 509.021 411.397 507.96 411.397C506.935 411.397 506.057 411.067 505.325 410.408C504.629 409.713 504.281 408.835 504.281 407.773V384.386C504.281 381.824 503.842 379.426 502.964 377.194C502.122 374.925 500.914 372.948 499.34 371.265C497.803 369.581 495.954 368.263 493.795 367.312C491.672 366.324 489.348 365.829 486.822 365.829C484.297 365.829 481.954 366.305 479.795 367.257C477.672 368.209 475.823 369.508 474.249 371.155C472.675 372.802 471.449 374.76 470.571 377.029C469.692 379.262 469.253 381.659 469.253 384.221V407.773C469.253 408.835 468.924 409.713 468.265 410.408C467.606 411.067 466.746 411.397 465.684 411.397C464.696 411.397 463.818 411.067 463.049 410.408C462.28 409.713 461.896 408.835 461.896 407.773V384.166ZM529.919 388.613C530.212 390.919 530.889 393.078 531.951 395.091C533.049 397.068 534.44 398.806 536.123 400.307C537.807 401.771 539.71 402.923 541.833 403.766C543.993 404.607 546.262 405.028 548.642 405.028C549.74 405.028 550.709 404.992 551.551 404.919C552.43 404.808 553.235 404.662 553.967 404.479C554.735 404.26 555.467 403.985 556.163 403.655C556.895 403.327 557.645 402.942 558.414 402.503C558.816 402.247 559.201 402.082 559.567 402.009C559.97 401.899 560.336 401.844 560.665 401.844C561.69 401.844 562.532 402.247 563.191 403.052C563.886 403.857 564.234 404.735 564.234 405.687C564.234 406.236 564.087 406.785 563.795 407.334C563.539 407.846 563.099 408.286 562.477 408.651C561.525 409.201 560.555 409.695 559.567 410.134C558.615 410.573 557.591 410.939 556.492 411.232C555.394 411.488 554.205 411.69 552.924 411.836C551.643 411.982 550.215 412.055 548.642 412.055C544.944 412.055 541.467 411.36 538.21 409.969C534.952 408.542 532.097 406.62 529.644 404.205C527.229 401.789 525.308 398.953 523.88 395.695C522.489 392.438 521.794 388.961 521.794 385.264C521.794 381.568 522.489 378.091 523.88 374.833C525.308 371.576 527.229 368.739 529.644 366.324C532.097 363.871 534.952 361.95 538.21 360.559C541.467 359.132 544.944 358.418 548.642 358.418C552.302 358.418 555.76 359.132 559.018 360.559C562.276 361.95 565.112 363.853 567.528 366.269C569.98 368.684 571.921 371.521 573.348 374.778C574.775 377.999 575.507 381.439 575.544 385.099C575.544 386.088 575.215 386.929 574.556 387.625C573.897 388.284 573.037 388.613 571.975 388.613H529.919ZM568.077 382.464C567.784 380.049 567.089 377.816 565.991 375.766C564.893 373.68 563.483 371.887 561.763 370.386C560.043 368.849 558.067 367.641 555.833 366.763C553.637 365.884 551.277 365.445 548.751 365.445C546.226 365.445 543.846 365.903 541.614 366.818C539.417 367.696 537.478 368.904 535.794 370.441C534.11 371.978 532.738 373.79 531.676 375.876C530.615 377.926 529.956 380.122 529.7 382.464H568.077ZM581.746 363.743C581.49 363.231 581.362 362.7 581.362 362.151C581.362 361.236 581.691 360.413 582.35 359.681C583.046 358.912 583.96 358.528 585.095 358.528C585.79 358.528 586.431 358.729 587.016 359.132C587.602 359.498 588.06 360.047 588.389 360.779L604.147 399.319L619.849 360.779C620.142 360.047 620.581 359.498 621.167 359.132C621.789 358.729 622.448 358.528 623.143 358.528C624.241 358.528 625.138 358.912 625.833 359.681C626.529 360.413 626.877 361.236 626.877 362.151C626.877 362.664 626.767 363.194 626.547 363.743L607.496 409.53C607.093 410.189 606.654 410.738 606.178 411.177C605.702 411.58 605.007 411.781 604.091 411.781C603.359 411.781 602.683 411.58 602.06 411.177C601.474 410.738 601.035 410.189 600.742 409.53L581.746 363.743ZM638.02 385.319C638.02 387.954 638.533 390.461 639.557 392.84C640.582 395.183 641.973 397.251 643.73 399.044C645.487 400.801 647.536 402.192 649.879 403.216C652.258 404.241 654.802 404.754 657.511 404.754C660.256 404.754 662.818 404.241 665.197 403.216C667.576 402.192 669.626 400.801 671.346 399.044C673.103 397.251 674.476 395.183 675.464 392.84C676.489 390.461 677.001 387.954 677.001 385.319C677.001 382.647 676.489 380.122 675.464 377.743C674.476 375.364 673.103 373.296 671.346 371.539C669.626 369.782 667.576 368.392 665.197 367.367C662.818 366.342 660.256 365.829 657.511 365.829C654.802 365.829 652.258 366.342 649.879 367.367C647.536 368.392 645.487 369.782 643.73 371.539C641.973 373.296 640.582 375.364 639.557 377.743C638.533 380.122 638.02 382.647 638.02 385.319ZM630.718 385.319C630.718 381.586 631.413 378.091 632.804 374.833C634.232 371.539 636.153 368.684 638.569 366.269C641.021 363.853 643.858 361.95 647.079 360.559C650.337 359.132 653.814 358.418 657.511 358.418C661.244 358.418 664.74 359.132 667.997 360.559C671.255 361.95 674.091 363.871 676.507 366.324C678.923 368.739 680.826 371.576 682.217 374.833C683.608 378.091 684.303 381.586 684.303 385.319C684.303 389.016 683.608 392.493 682.217 395.75C680.826 398.971 678.923 401.789 676.507 404.205C674.091 406.62 671.255 408.542 667.997 409.969C664.74 411.36 661.244 412.055 657.511 412.055C653.814 412.055 650.337 411.36 647.079 409.969C643.858 408.542 641.021 406.62 638.569 404.205C636.153 401.789 634.232 398.971 632.804 395.75C631.413 392.493 630.718 389.016 630.718 385.319Z" fill="white"/>
</g>
<g opacity="0.4">
<g filter="url(#filter4_f_102_270)">
<circle cx="365.76" cy="203.569" r="140.327" fill="url(#paint1_linear_102_270)"/>
</g>
<g filter="url(#filter5_f_102_270)">
<path d="M140.744 226.659C145.864 193.202 113.582 175.287 121.009 142.266C134.042 84.3204 225.063 205.244 212.979 263.395C207.915 287.763 200.197 302.708 180.957 318.499C146.039 347.158 85.7528 358.766 65.2813 318.499C44.2444 277.12 133.722 272.544 140.744 226.659Z" fill="#4ACFFF"/>
</g>
<g filter="url(#filter6_f_102_270)">
<circle cx="292.286" cy="297.857" r="126.767" fill="#FF3333"/>
</g>
</g>
<g opacity="0.4">
<g filter="url(#filter7_f_102_270)">
<circle cx="956.029" cy="531.3" r="133.058" fill="url(#paint2_linear_102_270)"/>
</g>
<g filter="url(#filter8_f_102_270)">
<path d="M742.669 553.193C747.524 521.469 716.914 504.482 723.957 473.171C736.315 418.227 822.621 532.887 811.163 588.026C806.361 611.131 799.042 625.302 780.8 640.275C747.69 667.449 690.527 678.456 671.116 640.275C651.169 601.04 736.011 596.701 742.669 553.193Z" fill="#4ACFFF"/>
</g>
<g filter="url(#filter9_f_102_270)">
<circle cx="886.361" cy="620.702" r="120.2" fill="#FF3333"/>
</g>
</g>
</g>
<g opacity="0.25" filter="url(#filter10_dddd_102_270)">
<rect x="235" y="460.254" width="172.493" height="172.493" rx="40" fill="white" fill-opacity="0.2"/>
</g>
<g opacity="0.25" filter="url(#filter11_dddd_102_270)">
<rect x="733.599" y="129" width="172.493" height="172.493" rx="40" fill="white" fill-opacity="0.25"/>
</g>
<g opacity="0.25" filter="url(#filter12_dddd_102_270)">
<rect x="779.94" y="501.447" width="169.06" height="172.493" rx="40" fill="white" fill-opacity="0.2"/>
</g>
<g opacity="0.25" filter="url(#filter13_dddd_102_270)">
<rect x="270.185" y="182.207" width="73.8029" height="73.8029" rx="20" fill="white" fill-opacity="0.25"/>
</g>
<defs>
<filter id="filter0_f_102_270" x="302.164" y="-95.8448" width="780.361" height="780.361" filterUnits="userSpaceOnUse" color-interpolation-filters="sRGB">
<feFlood flood-opacity="0" result="BackgroundImageFix"/>
<feBlend mode="normal" in="SourceGraphic" in2="BackgroundImageFix" result="shape"/>
<feGaussianBlur stdDeviation="66.9224" result="effect1_foregroundBlur_102_270"/>
</filter>
<filter id="filter1_f_102_270" x="0.155228" y="27.9091" width="545.339" height="665.154" filterUnits="userSpaceOnUse" color-interpolation-filters="sRGB">
<feFlood flood-opacity="0" result="BackgroundImageFix"/>
<feBlend mode="normal" in="SourceGraphic" in2="BackgroundImageFix" result="shape"/>
<feGaussianBlur stdDeviation="66.9224" result="effect1_foregroundBlur_102_270"/>
</filter>
<filter id="filter2_f_102_270" x="189.096" y="108.554" width="730.822" height="730.822" filterUnits="userSpaceOnUse" color-interpolation-filters="sRGB">
<feFlood flood-opacity="0" result="BackgroundImageFix"/>
<feBlend mode="normal" in="SourceGraphic" in2="BackgroundImageFix" result="shape"/>
<feGaussianBlur stdDeviation="66.9224" result="effect1_foregroundBlur_102_270"/>
</filter>
<filter id="filter3_d_102_270" x="454.925" y="351.447" width="236.35" height="67.5796" filterUnits="userSpaceOnUse" color-interpolation-filters="sRGB">
<feFlood flood-opacity="0" result="BackgroundImageFix"/>
<feColorMatrix in="SourceAlpha" type="matrix" values="0 0 0 0 0 0 0 0 0 0 0 0 0 0 0 0 0 0 127 0" result="hardAlpha"/>
<feOffset/>
<feGaussianBlur stdDeviation="3.48571"/>
<feComposite in2="hardAlpha" operator="out"/>
<feColorMatrix type="matrix" values="0 0 0 0 1 0 0 0 0 1 0 0 0 0 1 0 0 0 0.4 0"/>
<feBlend mode="normal" in2="BackgroundImageFix" result="effect1_dropShadow_102_270"/>
<feBlend mode="normal" in="SourceGraphic" in2="effect1_dropShadow_102_270" result="shape"/>
</filter>
<filter id="filter4_f_102_270" x="91.5882" y="-70.6026" width="548.343" height="548.344" filterUnits="userSpaceOnUse" color-interpolation-filters="sRGB">
<feFlood flood-opacity="0" result="BackgroundImageFix"/>
<feBlend mode="normal" in="SourceGraphic" in2="BackgroundImageFix" result="shape"/>
<feGaussianBlur stdDeviation="66.9224" result="effect1_foregroundBlur_102_270"/>
</filter>
<filter id="filter5_f_102_270" x="-71.7582" y="-6.90337" width="419.684" height="485.275" filterUnits="userSpaceOnUse" color-interpolation-filters="sRGB">
<feFlood flood-opacity="0" result="BackgroundImageFix"/>
<feBlend mode="normal" in="SourceGraphic" in2="BackgroundImageFix" result="shape"/>
<feGaussianBlur stdDeviation="66.9224" result="effect1_foregroundBlur_102_270"/>
</filter>
<filter id="filter6_f_102_270" x="31.674" y="37.2451" width="521.224" height="521.225" filterUnits="userSpaceOnUse" color-interpolation-filters="sRGB">
<feFlood flood-opacity="0" result="BackgroundImageFix"/>
<feBlend mode="normal" in="SourceGraphic" in2="BackgroundImageFix" result="shape"/>
<feGaussianBlur stdDeviation="66.9224" result="effect1_foregroundBlur_102_270"/>
</filter>
<filter id="filter7_f_102_270" x="696.06" y="271.331" width="519.938" height="519.938" filterUnits="userSpaceOnUse" color-interpolation-filters="sRGB">
<feFlood flood-opacity="0" result="BackgroundImageFix"/>
<feBlend mode="normal" in="SourceGraphic" in2="BackgroundImageFix" result="shape"/>
<feGaussianBlur stdDeviation="63.4557" result="effect1_foregroundBlur_102_270"/>
</filter>
<filter id="filter8_f_102_270" x="541.175" y="331.729" width="397.944" height="460.137" filterUnits="userSpaceOnUse" color-interpolation-filters="sRGB">
<feFlood flood-opacity="0" result="BackgroundImageFix"/>
<feBlend mode="normal" in="SourceGraphic" in2="BackgroundImageFix" result="shape"/>
<feGaussianBlur stdDeviation="63.4557" result="effect1_foregroundBlur_102_270"/>
</filter>
<filter id="filter9_f_102_270" x="639.249" y="373.591" width="494.223" height="494.223" filterUnits="userSpaceOnUse" color-interpolation-filters="sRGB">
<feFlood flood-opacity="0" result="BackgroundImageFix"/>
<feBlend mode="normal" in="SourceGraphic" in2="BackgroundImageFix" result="shape"/>
<feGaussianBlur stdDeviation="63.4557" result="effect1_foregroundBlur_102_270"/>
</filter>
<filter id="filter10_dddd_102_270" x="225" y="348.254" width="303.493" height="295.492" filterUnits="userSpaceOnUse" color-interpolation-filters="sRGB">
<feFlood flood-opacity="0" result="BackgroundImageFix"/>
<feColorMatrix in="SourceAlpha" type="matrix" values="0 0 0 0 0 0 0 0 0 0 0 0 0 0 0 0 0 0 127 0" result="hardAlpha"/>
<feOffset dx="5" dy="-4"/>
<feGaussianBlur stdDeviation="7.5"/>
<feColorMatrix type="matrix" values="0 0 0 0 0 0 0 0 0 0 0 0 0 0 0 0 0 0 0.1 0"/>
<feBlend mode="normal" in2="BackgroundImageFix" result="effect1_dropShadow_102_270"/>
<feColorMatrix in="SourceAlpha" type="matrix" values="0 0 0 0 0 0 0 0 0 0 0 0 0 0 0 0 0 0 127 0" result="hardAlpha"/>
<feOffset dx="20" dy="-17"/>
<feGaussianBlur stdDeviation="13"/>
<feColorMatrix type="matrix" values="0 0 0 0 0 0 0 0 0 0 0 0 0 0 0 0 0 0 0.09 0"/>
<feBlend mode="normal" in2="effect1_dropShadow_102_270" result="effect2_dropShadow_102_270"/>
<feColorMatrix in="SourceAlpha" type="matrix" values="0 0 0 0 0 0 0 0 0 0 0 0 0 0 0 0 0 0 127 0" result="hardAlpha"/>
<feOffset dx="45" dy="-39"/>
<feGaussianBlur stdDeviation="18"/>
<feColorMatrix type="matrix" values="0 0 0 0 0 0 0 0 0 0 0 0 0 0 0 0 0 0 0.05 0"/>
<feBlend mode="normal" in2="effect2_dropShadow_102_270" result="effect3_dropShadow_102_270"/>
<feColorMatrix in="SourceAlpha" type="matrix" values="0 0 0 0 0 0 0 0 0 0 0 0 0 0 0 0 0 0 127 0" result="hardAlpha"/>
<feOffset dx="79" dy="-70"/>
<feGaussianBlur stdDeviation="21"/>
<feColorMatrix type="matrix" values="0 0 0 0 0 0 0 0 0 0 0 0 0 0 0 0 0 0 0.01 0"/>
<feBlend mode="normal" in2="effect3_dropShadow_102_270" result="effect4_dropShadow_102_270"/>
<feBlend mode="normal" in="SourceGraphic" in2="effect4_dropShadow_102_270" result="shape"/>
</filter>
<filter id="filter11_dddd_102_270" x="584.599" y="115" width="331.493" height="297.492" filterUnits="userSpaceOnUse" color-interpolation-filters="sRGB">
<feFlood flood-opacity="0" result="BackgroundImageFix"/>
<feColorMatrix in="SourceAlpha" type="matrix" values="0 0 0 0 0 0 0 0 0 0 0 0 0 0 0 0 0 0 127 0" result="hardAlpha"/>
<feOffset dx="-6" dy="4"/>
<feGaussianBlur stdDeviation="8"/>
<feColorMatrix type="matrix" values="0 0 0 0 0 0 0 0 0 0 0 0 0 0 0 0 0 0 0.1 0"/>
<feBlend mode="normal" in2="BackgroundImageFix" result="effect1_dropShadow_102_270"/>
<feColorMatrix in="SourceAlpha" type="matrix" values="0 0 0 0 0 0 0 0 0 0 0 0 0 0 0 0 0 0 127 0" result="hardAlpha"/>
<feOffset dx="-25" dy="16"/>
<feGaussianBlur stdDeviation="15"/>
<feColorMatrix type="matrix" values="0 0 0 0 0 0 0 0 0 0 0 0 0 0 0 0 0 0 0.09 0"/>
<feBlend mode="normal" in2="effect1_dropShadow_102_270" result="effect2_dropShadow_102_270"/>
<feColorMatrix in="SourceAlpha" type="matrix" values="0 0 0 0 0 0 0 0 0 0 0 0 0 0 0 0 0 0 127 0" result="hardAlpha"/>
<feOffset dx="-57" dy="36"/>
<feGaussianBlur stdDeviation="20"/>
<feColorMatrix type="matrix" values="0 0 0 0 0 0 0 0 0 0 0 0 0 0 0 0 0 0 0.05 0"/>
<feBlend mode="normal" in2="effect2_dropShadow_102_270" result="effect3_dropShadow_102_270"/>
<feColorMatrix in="SourceAlpha" type="matrix" values="0 0 0 0 0 0 0 0 0 0 0 0 0 0 0 0 0 0 127 0" result="hardAlpha"/>
<feOffset dx="-101" dy="63"/>
<feGaussianBlur stdDeviation="24"/>
<feColorMatrix type="matrix" values="0 0 0 0 0 0 0 0 0 0 0 0 0 0 0 0 0 0 0.01 0"/>
<feBlend mode="normal" in2="effect3_dropShadow_102_270" result="effect4_dropShadow_102_270"/>
<feBlend mode="normal" in="SourceGraphic" in2="effect4_dropShadow_102_270" result="shape"/>
</filter>
<filter id="filter12_dddd_102_270" x="630.94" y="487.447" width="328.06" height="297.492" filterUnits="userSpaceOnUse" color-interpolation-filters="sRGB">
<feFlood flood-opacity="0" result="BackgroundImageFix"/>
<feColorMatrix in="SourceAlpha" type="matrix" values="0 0 0 0 0 0 0 0 0 0 0 0 0 0 0 0 0 0 127 0" result="hardAlpha"/>
<feOffset dx="-6" dy="4"/>
<feGaussianBlur stdDeviation="8"/>
<feColorMatrix type="matrix" values="0 0 0 0 0 0 0 0 0 0 0 0 0 0 0 0 0 0 0.1 0"/>
<feBlend mode="normal" in2="BackgroundImageFix" result="effect1_dropShadow_102_270"/>
<feColorMatrix in="SourceAlpha" type="matrix" values="0 0 0 0 0 0 0 0 0 0 0 0 0 0 0 0 0 0 127 0" result="hardAlpha"/>
<feOffset dx="-25" dy="16"/>
<feGaussianBlur stdDeviation="15"/>
<feColorMatrix type="matrix" values="0 0 0 0 0 0 0 0 0 0 0 0 0 0 0 0 0 0 0.09 0"/>
<feBlend mode="normal" in2="effect1_dropShadow_102_270" result="effect2_dropShadow_102_270"/>
<feColorMatrix in="SourceAlpha" type="matrix" values="0 0 0 0 0 0 0 0 0 0 0 0 0 0 0 0 0 0 127 0" result="hardAlpha"/>
<feOffset dx="-57" dy="36"/>
<feGaussianBlur stdDeviation="20"/>
<feColorMatrix type="matrix" values="0 0 0 0 0 0 0 0 0 0 0 0 0 0 0 0 0 0 0.05 0"/>
<feBlend mode="normal" in2="effect2_dropShadow_102_270" result="effect3_dropShadow_102_270"/>
<feColorMatrix in="SourceAlpha" type="matrix" values="0 0 0 0 0 0 0 0 0 0 0 0 0 0 0 0 0 0 127 0" result="hardAlpha"/>
<feOffset dx="-101" dy="63"/>
<feGaussianBlur stdDeviation="24"/>
<feColorMatrix type="matrix" values="0 0 0 0 0 0 0 0 0 0 0 0 0 0 0 0 0 0 0.01 0"/>
<feBlend mode="normal" in2="effect3_dropShadow_102_270" result="effect4_dropShadow_102_270"/>
<feBlend mode="normal" in="SourceGraphic" in2="effect4_dropShadow_102_270" result="shape"/>
</filter>
<filter id="filter13_dddd_102_270" x="121.185" y="168.207" width="232.803" height="198.803" filterUnits="userSpaceOnUse" color-interpolation-filters="sRGB">
<feFlood flood-opacity="0" result="BackgroundImageFix"/>
<feColorMatrix in="SourceAlpha" type="matrix" values="0 0 0 0 0 0 0 0 0 0 0 0 0 0 0 0 0 0 127 0" result="hardAlpha"/>
<feOffset dx="-6" dy="4"/>
<feGaussianBlur stdDeviation="8"/>
<feColorMatrix type="matrix" values="0 0 0 0 0 0 0 0 0 0 0 0 0 0 0 0 0 0 0.1 0"/>
<feBlend mode="normal" in2="BackgroundImageFix" result="effect1_dropShadow_102_270"/>
<feColorMatrix in="SourceAlpha" type="matrix" values="0 0 0 0 0 0 0 0 0 0 0 0 0 0 0 0 0 0 127 0" result="hardAlpha"/>
<feOffset dx="-25" dy="16"/>
<feGaussianBlur stdDeviation="15"/>
<feColorMatrix type="matrix" values="0 0 0 0 0 0 0 0 0 0 0 0 0 0 0 0 0 0 0.09 0"/>
<feBlend mode="normal" in2="effect1_dropShadow_102_270" result="effect2_dropShadow_102_270"/>
<feColorMatrix in="SourceAlpha" type="matrix" values="0 0 0 0 0 0 0 0 0 0 0 0 0 0 0 0 0 0 127 0" result="hardAlpha"/>
<feOffset dx="-57" dy="36"/>
<feGaussianBlur stdDeviation="20"/>
<feColorMatrix type="matrix" values="0 0 0 0 0 0 0 0 0 0 0 0 0 0 0 0 0 0 0.05 0"/>
<feBlend mode="normal" in2="effect2_dropShadow_102_270" result="effect3_dropShadow_102_270"/>
<feColorMatrix in="SourceAlpha" type="matrix" values="0 0 0 0 0 0 0 0 0 0 0 0 0 0 0 0 0 0 127 0" result="hardAlpha"/>
<feOffset dx="-101" dy="63"/>
<feGaussianBlur stdDeviation="24"/>
<feColorMatrix type="matrix" values="0 0 0 0 0 0 0 0 0 0 0 0 0 0 0 0 0 0 0.01 0"/>
<feBlend mode="normal" in2="effect3_dropShadow_102_270" result="effect4_dropShadow_102_270"/>
<feBlend mode="normal" in="SourceGraphic" in2="effect4_dropShadow_102_270" result="shape"/>
</filter>
<linearGradient id="paint0_linear_102_270" x1="692.344" y1="38" x2="692.344" y2="550.672" gradientUnits="userSpaceOnUse">
<stop stop-color="#FFD8FC"/>
<stop offset="1" stop-color="#FF41F2"/>
</linearGradient>
<linearGradient id="paint1_linear_102_270" x1="365.76" y1="63.2422" x2="365.76" y2="343.896" gradientUnits="userSpaceOnUse">
<stop stop-color="#FFD8FC"/>
<stop offset="1" stop-color="#FF41F2"/>
</linearGradient>
<linearGradient id="paint2_linear_102_270" x1="956.029" y1="398.242" x2="956.029" y2="664.357" gradientUnits="userSpaceOnUse">
<stop stop-color="#FFD8FC"/>
<stop offset="1" stop-color="#FF41F2"/>
</linearGradient>
<clipPath id="clip0_102_270">
<rect x="307.087" y="212.242" width="532.067" height="343.269" rx="40" fill="white"/>
</clipPath>
</defs>
</svg>
