<svg width="533" height="344" viewBox="0 0 533 344" fill="none" xmlns="http://www.w3.org/2000/svg">
<g clip-path="url(#clip0_102_275)">
<rect x="0.0865479" y="0.242188" width="532.067" height="343.269" rx="40" fill="#0D0C0B" fill-opacity="0.1"/>
<g filter="url(#filter0_d_102_275)">
<path d="M154.896 172.166C154.896 168.616 155.518 165.285 156.763 162.174C158.044 159.027 159.801 156.3 162.033 153.994C164.266 151.652 166.902 149.804 169.94 148.449C172.978 147.095 176.272 146.418 179.822 146.418C183.373 146.418 186.648 147.095 189.65 148.449C192.688 149.767 195.305 151.597 197.501 153.939C199.734 156.245 201.473 158.972 202.717 162.119C203.962 165.23 204.583 168.561 204.583 172.111V195.773C204.583 196.835 204.236 197.713 203.54 198.408C202.882 199.067 202.021 199.397 200.96 199.397C199.935 199.397 199.057 199.067 198.325 198.408C197.629 197.713 197.281 196.835 197.281 195.773V172.386C197.281 169.824 196.842 167.426 195.964 165.194C195.122 162.925 193.914 160.948 192.34 159.265C190.803 157.581 188.954 156.263 186.795 155.312C184.672 154.324 182.348 153.829 179.822 153.829C177.297 153.829 174.954 154.305 172.795 155.257C170.672 156.209 168.823 157.508 167.249 159.155C165.675 160.802 164.449 162.76 163.571 165.029C162.692 167.262 162.253 169.659 162.253 172.221V195.773C162.253 196.835 161.924 197.713 161.265 198.408C160.606 199.067 159.746 199.397 158.684 199.397C157.696 199.397 156.818 199.067 156.049 198.408C155.28 197.713 154.896 196.835 154.896 195.773V172.166ZM222.919 176.613C223.212 178.919 223.889 181.078 224.951 183.091C226.049 185.068 227.44 186.806 229.123 188.307C230.807 189.771 232.71 190.923 234.833 191.766C236.993 192.607 239.262 193.028 241.642 193.028C242.74 193.028 243.709 192.992 244.551 192.919C245.43 192.808 246.235 192.662 246.967 192.479C247.735 192.26 248.467 191.985 249.163 191.655C249.895 191.327 250.645 190.942 251.414 190.503C251.816 190.247 252.201 190.082 252.567 190.009C252.97 189.899 253.336 189.844 253.665 189.844C254.69 189.844 255.532 190.247 256.191 191.052C256.886 191.857 257.234 192.735 257.234 193.687C257.234 194.236 257.087 194.785 256.795 195.334C256.539 195.846 256.099 196.286 255.477 196.651C254.525 197.201 253.555 197.695 252.567 198.134C251.615 198.573 250.591 198.939 249.492 199.232C248.394 199.488 247.205 199.69 245.924 199.836C244.643 199.982 243.215 200.055 241.642 200.055C237.944 200.055 234.467 199.36 231.21 197.969C227.952 196.542 225.097 194.62 222.644 192.205C220.229 189.789 218.308 186.953 216.88 183.695C215.489 180.438 214.794 176.961 214.794 173.264C214.794 169.568 215.489 166.091 216.88 162.833C218.308 159.576 220.229 156.739 222.644 154.324C225.097 151.871 227.952 149.95 231.21 148.559C234.467 147.132 237.944 146.418 241.642 146.418C245.302 146.418 248.76 147.132 252.018 148.559C255.276 149.95 258.112 151.853 260.528 154.269C262.98 156.684 264.921 159.521 266.348 162.778C267.775 165.999 268.507 169.439 268.544 173.099C268.544 174.088 268.215 174.929 267.556 175.625C266.897 176.284 266.037 176.613 264.975 176.613H222.919ZM261.077 170.464C260.784 168.049 260.089 165.816 258.991 163.766C257.893 161.68 256.483 159.887 254.763 158.386C253.043 156.849 251.067 155.641 248.833 154.763C246.637 153.884 244.277 153.445 241.751 153.445C239.226 153.445 236.846 153.903 234.614 154.818C232.417 155.696 230.478 156.904 228.794 158.441C227.11 159.978 225.738 161.79 224.676 163.876C223.615 165.926 222.956 168.122 222.7 170.464H261.077ZM274.746 151.743C274.49 151.231 274.362 150.7 274.362 150.151C274.362 149.236 274.691 148.413 275.35 147.681C276.046 146.912 276.96 146.528 278.095 146.528C278.79 146.528 279.431 146.729 280.016 147.132C280.602 147.498 281.06 148.047 281.389 148.779L297.147 187.319L312.849 148.779C313.142 148.047 313.581 147.498 314.167 147.132C314.789 146.729 315.448 146.528 316.143 146.528C317.241 146.528 318.138 146.912 318.833 147.681C319.529 148.413 319.877 149.236 319.877 150.151C319.877 150.664 319.767 151.194 319.547 151.743L300.496 197.53C300.093 198.189 299.654 198.738 299.178 199.177C298.702 199.58 298.007 199.781 297.091 199.781C296.359 199.781 295.683 199.58 295.06 199.177C294.474 198.738 294.035 198.189 293.742 197.53L274.746 151.743ZM331.02 173.319C331.02 175.954 331.533 178.461 332.557 180.84C333.582 183.183 334.973 185.251 336.73 187.044C338.487 188.801 340.536 190.192 342.879 191.216C345.258 192.241 347.802 192.754 350.511 192.754C353.256 192.754 355.818 192.241 358.197 191.216C360.576 190.192 362.626 188.801 364.346 187.044C366.103 185.251 367.476 183.183 368.464 180.84C369.489 178.461 370.001 175.954 370.001 173.319C370.001 170.647 369.489 168.122 368.464 165.743C367.476 163.364 366.103 161.296 364.346 159.539C362.626 157.782 360.576 156.392 358.197 155.367C355.818 154.342 353.256 153.829 350.511 153.829C347.802 153.829 345.258 154.342 342.879 155.367C340.536 156.392 338.487 157.782 336.73 159.539C334.973 161.296 333.582 163.364 332.557 165.743C331.533 168.122 331.02 170.647 331.02 173.319ZM323.718 173.319C323.718 169.586 324.413 166.091 325.804 162.833C327.232 159.539 329.153 156.684 331.569 154.269C334.021 151.853 336.858 149.95 340.079 148.559C343.337 147.132 346.814 146.418 350.511 146.418C354.244 146.418 357.74 147.132 360.997 148.559C364.255 149.95 367.091 151.871 369.507 154.324C371.923 156.739 373.826 159.576 375.217 162.833C376.608 166.091 377.303 169.586 377.303 173.319C377.303 177.016 376.608 180.493 375.217 183.75C373.826 186.971 371.923 189.789 369.507 192.205C367.091 194.62 364.255 196.542 360.997 197.969C357.74 199.36 354.244 200.055 350.511 200.055C346.814 200.055 343.337 199.36 340.079 197.969C336.858 196.542 334.021 194.62 331.569 192.205C329.153 189.789 327.232 186.971 325.804 183.75C324.413 180.493 323.718 177.016 323.718 173.319Z" fill="white"/>
</g>
<g opacity="0.4">
<g filter="url(#filter1_f_102_275)">
<circle cx="58.7598" cy="-8.43103" r="140.327" fill="url(#paint0_linear_102_275)"/>
</g>
<g filter="url(#filter2_f_102_275)">
<path d="M-166.256 14.659C-161.136 -18.7982 -193.418 -36.7126 -185.991 -69.7344C-172.958 -127.68 -81.9366 -6.75557 -94.0209 51.3949C-99.0848 75.7631 -106.803 90.7083 -126.043 106.499C-160.961 135.158 -221.247 146.766 -241.719 106.499C-262.756 65.1199 -173.278 60.5438 -166.256 14.659Z" fill="#4ACFFF"/>
</g>
<g filter="url(#filter3_f_102_275)">
<circle cx="-14.7141" cy="85.8569" r="126.767" fill="#FF3333"/>
</g>
</g>
<g opacity="0.4">
<g filter="url(#filter4_f_102_275)">
<circle cx="649.029" cy="319.3" r="133.058" fill="url(#paint1_linear_102_275)"/>
</g>
<g filter="url(#filter5_f_102_275)">
<path d="M435.669 341.193C440.524 309.469 409.914 292.482 416.957 261.171C429.315 206.227 515.621 320.887 504.163 376.026C499.361 399.131 492.042 413.302 473.8 428.275C440.69 455.449 383.527 466.456 364.116 428.275C344.169 389.04 429.011 384.701 435.669 341.193Z" fill="#4ACFFF"/>
</g>
<g filter="url(#filter6_f_102_275)">
<circle cx="579.361" cy="408.702" r="120.2" fill="#FF3333"/>
</g>
</g>
</g>
<defs>
<filter id="filter0_d_102_275" x="147.925" y="139.447" width="236.35" height="67.5796" filterUnits="userSpaceOnUse" color-interpolation-filters="sRGB">
<feFlood flood-opacity="0" result="BackgroundImageFix"/>
<feColorMatrix in="SourceAlpha" type="matrix" values="0 0 0 0 0 0 0 0 0 0 0 0 0 0 0 0 0 0 127 0" result="hardAlpha"/>
<feOffset/>
<feGaussianBlur stdDeviation="3.48571"/>
<feComposite in2="hardAlpha" operator="out"/>
<feColorMatrix type="matrix" values="0 0 0 0 1 0 0 0 0 1 0 0 0 0 1 0 0 0 0.4 0"/>
<feBlend mode="normal" in2="BackgroundImageFix" result="effect1_dropShadow_102_275"/>
<feBlend mode="normal" in="SourceGraphic" in2="effect1_dropShadow_102_275" result="shape"/>
</filter>
<filter id="filter1_f_102_275" x="-215.412" y="-282.603" width="548.343" height="548.344" filterUnits="userSpaceOnUse" color-interpolation-filters="sRGB">
<feFlood flood-opacity="0" result="BackgroundImageFix"/>
<feBlend mode="normal" in="SourceGraphic" in2="BackgroundImageFix" result="shape"/>
<feGaussianBlur stdDeviation="66.9224" result="effect1_foregroundBlur_102_275"/>
</filter>
<filter id="filter2_f_102_275" x="-378.758" y="-218.903" width="419.684" height="485.275" filterUnits="userSpaceOnUse" color-interpolation-filters="sRGB">
<feFlood flood-opacity="0" result="BackgroundImageFix"/>
<feBlend mode="normal" in="SourceGraphic" in2="BackgroundImageFix" result="shape"/>
<feGaussianBlur stdDeviation="66.9224" result="effect1_foregroundBlur_102_275"/>
</filter>
<filter id="filter3_f_102_275" x="-275.326" y="-174.755" width="521.224" height="521.225" filterUnits="userSpaceOnUse" color-interpolation-filters="sRGB">
<feFlood flood-opacity="0" result="BackgroundImageFix"/>
<feBlend mode="normal" in="SourceGraphic" in2="BackgroundImageFix" result="shape"/>
<feGaussianBlur stdDeviation="66.9224" result="effect1_foregroundBlur_102_275"/>
</filter>
<filter id="filter4_f_102_275" x="389.06" y="59.3308" width="519.938" height="519.938" filterUnits="userSpaceOnUse" color-interpolation-filters="sRGB">
<feFlood flood-opacity="0" result="BackgroundImageFix"/>
<feBlend mode="normal" in="SourceGraphic" in2="BackgroundImageFix" result="shape"/>
<feGaussianBlur stdDeviation="63.4557" result="effect1_foregroundBlur_102_275"/>
</filter>
<filter id="filter5_f_102_275" x="234.175" y="119.729" width="397.944" height="460.137" filterUnits="userSpaceOnUse" color-interpolation-filters="sRGB">
<feFlood flood-opacity="0" result="BackgroundImageFix"/>
<feBlend mode="normal" in="SourceGraphic" in2="BackgroundImageFix" result="shape"/>
<feGaussianBlur stdDeviation="63.4557" result="effect1_foregroundBlur_102_275"/>
</filter>
<filter id="filter6_f_102_275" x="332.249" y="161.591" width="494.223" height="494.223" filterUnits="userSpaceOnUse" color-interpolation-filters="sRGB">
<feFlood flood-opacity="0" result="BackgroundImageFix"/>
<feBlend mode="normal" in="SourceGraphic" in2="BackgroundImageFix" result="shape"/>
<feGaussianBlur stdDeviation="63.4557" result="effect1_foregroundBlur_102_275"/>
</filter>
<linearGradient id="paint0_linear_102_275" x1="58.7598" y1="-148.758" x2="58.7598" y2="131.896" gradientUnits="userSpaceOnUse">
<stop stop-color="#FFD8FC"/>
<stop offset="1" stop-color="#FF41F2"/>
</linearGradient>
<linearGradient id="paint1_linear_102_275" x1="649.029" y1="186.242" x2="649.029" y2="452.357" gradientUnits="userSpaceOnUse">
<stop stop-color="#FFD8FC"/>
<stop offset="1" stop-color="#FF41F2"/>
</linearGradient>
<clipPath id="clip0_102_275">
<rect x="0.0865479" y="0.242188" width="532.067" height="343.269" rx="40" fill="white"/>
</clipPath>
</defs>
</svg>
