<svg width="20" height="20" viewBox="0 0 20 20" fill="none" xmlns="http://www.w3.org/2000/svg">
<path d="M9.99999 19.1673C15.0626 19.1673 19.1667 15.0633 19.1667 10.0007C19.1667 4.93804 15.0626 0.833984 9.99999 0.833984M9.99999 19.1673C4.93738 19.1673 0.833328 15.0633 0.833328 10.0007C0.833328 4.93804 4.93738 0.833984 9.99999 0.833984M9.99999 19.1673C11.8409 19.1673 13.3333 15.0633 13.3333 10.0007C13.3333 4.93804 11.8409 0.833984 9.99999 0.833984M9.99999 19.1673C8.15904 19.1673 6.66666 15.0633 6.66666 10.0007C6.66666 4.93804 8.15904 0.833984 9.99999 0.833984M1.66666 6.66732H18.3333M1.66666 12.5006H18.3333" stroke="white" stroke-width="1.5" stroke-linecap="round"/>
</svg>
