<svg width="130" height="30" viewBox="0 0 130 30" fill="none" xmlns="http://www.w3.org/2000/svg">
<path d="M0 14.4018C0 12.4182 0.363684 10.5573 1.09112 8.81911C1.83991 7.06045 2.86685 5.53696 4.17193 4.24866C5.47698 2.93989 7.01739 1.90722 8.79315 1.15057C10.5689 0.393931 12.4944 0.015625 14.5697 0.015625C16.6449 0.015625 18.5597 0.393931 20.3141 1.15057C22.0899 1.88677 23.6196 2.90923 24.9032 4.21798C26.2083 5.5063 27.2247 7.02976 27.9519 8.78842C28.6795 10.5266 29.0429 12.3875 29.0429 14.3711V27.5918C29.0429 28.1848 28.8398 28.6754 28.4333 29.064C28.0482 29.4321 27.5454 29.6161 26.925 29.6161C26.326 29.6161 25.8125 29.4321 25.3846 29.064C24.9781 28.6754 24.7749 28.1848 24.7749 27.5918V14.5245C24.7749 13.093 24.5181 11.7536 24.0047 10.5062C23.5126 9.23831 22.8066 8.13405 21.8866 7.19338C20.9881 6.2527 19.9076 5.51651 18.6453 4.98483C17.4044 4.4327 16.0459 4.15663 14.5697 4.15663C13.0934 4.15663 11.7242 4.42249 10.4619 4.95417C9.22105 5.48585 8.14061 6.21181 7.22064 7.13203C6.30067 8.05226 5.58398 9.14628 5.07048 10.4142C4.55704 11.6616 4.30029 13.001 4.30029 14.4325V27.5918C4.30029 28.1848 4.10775 28.6754 3.72264 29.064C3.33753 29.4321 2.83478 29.6161 2.21431 29.6161C1.63666 29.6161 1.12319 29.4321 0.673901 29.064C0.224645 28.6754 0 28.1848 0 27.5918V14.4018ZM39.7605 16.8864C39.9318 18.1747 40.3274 19.3811 40.9479 20.5059C41.5896 21.6103 42.4027 22.5815 43.3869 23.4198C44.3711 24.2381 45.4835 24.882 46.7243 25.3525C47.9866 25.8227 49.3132 26.058 50.7039 26.058C51.3457 26.058 51.9126 26.0376 52.4045 25.9967C52.9182 25.9352 53.3888 25.8535 53.8166 25.7511C54.2659 25.6286 54.6937 25.475 55.1002 25.291C55.5284 25.1072 55.9668 24.8924 56.416 24.647C56.6513 24.5038 56.8761 24.4118 57.09 24.3709C57.3253 24.3094 57.5392 24.2789 57.7318 24.2789C58.3309 24.2789 58.8231 24.5038 59.208 24.9536C59.6145 25.4037 59.8179 25.8943 59.8179 26.4261C59.8179 26.7327 59.7321 27.0396 59.5612 27.3461C59.4114 27.6326 59.1547 27.8779 58.7909 28.0824C58.2346 28.3893 57.6677 28.6654 57.09 28.9107C56.5337 29.156 55.9349 29.3605 55.2928 29.5241C54.651 29.6673 53.9556 29.7798 53.207 29.8615C52.4581 29.9434 51.6237 29.9843 50.7039 29.9843C48.5429 29.9843 46.5104 29.5957 44.6064 28.8186C42.7024 28.0211 41.0333 26.9475 39.5999 25.5978C38.1881 24.2481 37.0649 22.6635 36.2305 20.8433C35.4175 19.0233 35.011 17.0806 35.011 15.0153C35.011 12.9499 35.4175 11.0072 36.2305 9.18718C37.0649 7.3672 38.1881 5.78236 39.5999 4.4327C41.0333 3.06258 42.7024 1.98901 44.6064 1.21192C46.5104 0.414379 48.5429 0.015625 50.7039 0.015625C52.8432 0.015625 54.8649 0.414379 56.7693 1.21192C58.6733 1.98901 60.3312 3.05237 61.7433 4.40204C63.1767 5.75168 64.3108 7.33651 65.1451 9.15652C65.9795 10.956 66.4074 12.8783 66.4287 14.9233C66.4287 15.4754 66.2362 15.9457 65.851 16.3342C65.4659 16.7023 64.9631 16.8864 64.3427 16.8864H39.7605ZM62.0643 13.4509C61.8931 12.1012 61.4866 10.8538 60.8448 9.70865C60.203 8.54305 59.3792 7.54103 58.3736 6.70259C57.368 5.84371 56.2129 5.16889 54.9076 4.6781C53.624 4.18732 52.2442 3.94191 50.768 3.94191C49.2919 3.94191 47.9011 4.19753 46.5962 4.70876C45.3123 5.19955 44.1785 5.8744 43.1943 6.73325C42.2101 7.59213 41.4079 8.60439 40.7875 9.76999C40.167 10.9152 39.7819 12.1421 39.6321 13.4509H62.0643ZM70.0537 2.99103C69.9042 2.70472 69.8293 2.40821 69.8293 2.10146C69.8293 1.59022 70.0219 1.13013 70.407 0.721132C70.8135 0.29169 71.3482 0.0769696 72.0113 0.0769696C72.4178 0.0769696 72.7925 0.18945 73.1346 0.414379C73.477 0.618891 73.7445 0.925644 73.937 1.33461L83.1473 22.868L92.3257 1.33461C92.4969 0.925644 92.7535 0.618891 93.0959 0.414379C93.4594 0.18945 93.8445 0.0769696 94.251 0.0769696C94.8928 0.0769696 95.417 0.29169 95.8235 0.721132C96.23 1.13013 96.4334 1.59022 96.4334 2.10146C96.4334 2.38776 96.369 2.68427 96.2408 2.99103L85.1049 28.5733C84.8696 28.9414 84.6129 29.248 84.3346 29.4933C84.0566 29.7185 83.6501 29.831 83.1151 29.831C82.6872 29.831 82.2916 29.7185 81.9278 29.4933C81.5854 29.248 81.3287 28.9414 81.1575 28.5733L70.0537 2.99103ZM102.947 15.0459C102.947 16.5183 103.246 17.9191 103.845 19.2483C104.444 20.5571 105.257 21.7124 106.284 22.7144C107.311 23.6959 108.509 24.473 109.879 25.0456C111.269 25.6182 112.756 25.9047 114.339 25.9047C115.944 25.9047 117.441 25.6182 118.832 25.0456C120.223 24.473 121.421 23.6959 122.426 22.7144C123.453 21.7124 124.256 20.5571 124.833 19.2483C125.433 17.9191 125.732 16.5183 125.732 15.0459C125.732 13.5531 125.433 12.1421 124.833 10.8129C124.256 9.48369 123.453 8.32833 122.426 7.34675C121.421 6.36518 120.223 5.58809 118.832 5.01551C117.441 4.44294 115.944 4.15663 114.339 4.15663C112.756 4.15663 111.269 4.44294 109.879 5.01551C108.509 5.58809 107.311 6.36518 106.284 7.34675C105.257 8.32833 104.444 9.48369 103.845 10.8129C103.246 12.1421 102.947 13.5531 102.947 15.0459ZM98.6785 15.0459C98.6785 12.9601 99.085 11.0072 99.898 9.18718C100.732 7.34675 101.856 5.75168 103.268 4.40204C104.701 3.05237 106.359 1.98901 108.242 1.21192C110.146 0.414379 112.179 0.015625 114.339 0.015625C116.522 0.015625 118.565 0.414379 120.469 1.21192C122.373 1.98901 124.031 3.06258 125.443 4.4327C126.855 5.78236 127.967 7.3672 128.78 9.18718C129.593 11.0072 130 12.9601 130 15.0459C130 17.1113 129.593 19.054 128.78 20.874C127.967 22.6735 126.855 24.2481 125.443 25.5978C124.031 26.9475 122.373 28.0211 120.469 28.8186C118.565 29.5957 116.522 29.9843 114.339 29.9843C112.179 29.9843 110.146 29.5957 108.242 28.8186C106.359 28.0211 104.701 26.9475 103.268 25.5978C101.856 24.2481 100.732 22.6735 99.898 20.874C99.085 19.054 98.6785 17.1113 98.6785 15.0459Z" fill="#101010"/>
</svg>
