<svg width="40" height="40" viewBox="0 0 40 40" fill="none" xmlns="http://www.w3.org/2000/svg">
<rect width="40" height="40" rx="20" fill="url(#paint0_linear_146_518)"/>
<path d="M24.2271 10H20.8565V23.6232C20.8565 25.2464 19.5601 26.5797 17.9468 26.5797C16.3336 26.5797 15.0372 25.2464 15.0372 23.6232C15.0372 22.029 16.3048 20.7246 17.8604 20.6667V17.2464C14.4322 17.3043 11.6666 20.1159 11.6666 23.6232C11.6666 27.1594 14.4898 30 17.9757 30C21.4614 30 24.2847 27.1304 24.2847 23.6232V16.6377C25.5522 17.5652 27.1079 18.1159 28.75 18.1449V14.7246C26.2148 14.6377 24.2271 12.5507 24.2271 10Z" fill="white"/>
<defs>
<linearGradient id="paint0_linear_146_518" x1="2.1978" y1="5.15934e-07" x2="41.5294" y2="1.78415" gradientUnits="userSpaceOnUse">
<stop stop-color="#BB4642"/>
<stop offset="0.888049" stop-color="#A22976"/>
</linearGradient>
</defs>
</svg>
